<?xml version="1.0" encoding="utf-8"?>
<!-- Generator: Adobe Illustrator 19.0.0, SVG Export Plug-In . SVG Version: 6.00 Build 0)  -->
<svg version="1.1" id="Layer_1" xmlns="http://www.w3.org/2000/svg" xmlns:xlink="http://www.w3.org/1999/xlink" x="0px" y="0px"
	 width="203.2px" height="203.2px" viewBox="0 0 203.2 203.2" style="enable-background:new 0 0 203.2 203.2;" xml:space="preserve"
	>
<style type="text/css">
	.st0{fill:#ECA822;}
</style>
<g>
	<g>
		<path class="st0" d="M101.6,203.2C45.6,203.2,0,157.6,0,101.6S45.6,0,101.6,0s101.6,45.6,101.6,101.6S157.6,203.2,101.6,203.2z
			 M101.6,4C47.8,4,4,47.8,4,101.6c0,53.8,43.8,97.6,97.6,97.6c53.8,0,97.6-43.8,97.6-97.6C199.2,47.8,155.4,4,101.6,4z"/>
	</g>
	<g>
		<path class="st0" d="M124.4,120.2c-2.1,5.2-4.1,10.1-6.2,15.3c-3.1-2.1-6-3.1-9-2c-1.7,0.6-3.4,1.6-4.6,2.9
			c-3.2,3.4-3.1,7.4-0.1,12.3c-4.4,2.7-9,4.7-14,5.9c-0.4,0.1-1.2-0.6-1.4-1.1c-1.7-4.4-5-7-9.1-6.9c-4.1,0-7.5,2.5-9,6.8
			c-0.5,1.6-1.4,1.5-2.5,1.2c-2.2-0.7-4.4-1.4-6.5-2.4c-2.2-1-4.4-2.2-6.7-3.4c3.1-4.9,3.2-9.4-1.1-13.4c-3.7-3.4-7.8-2.8-12.1-0.4
			c-2.7-4.2-4.6-8.6-5.7-13.4c-0.1-0.5,0.9-1.5,1.6-1.8c3.9-1.7,6.1-4.7,6.1-8.7c0.1-4.2-2.2-6.9-5.8-8.7c-0.7-0.3-1.4-0.6-2.7-1.1
			c2-4.8,3.9-9.5,5.9-14.5c4.9,3.1,9.3,3.3,13.1-0.5c3.9-3.8,3.5-8.2,0.7-12.8c4.6-3.3,9.7-5.1,15.1-6.5c1.7,5.2,4.7,8.7,10.5,8.1
			c4.6-0.4,7.2-3.4,8.4-8c5.6,1.1,10.5,3.4,15.2,6.2c-2.7,6.2-2.4,9.5,0.9,12.8c3.3,3.3,6.8,3.5,12.8,0.8c1.9,4.5,3.8,9.1,5.8,13.9
			c-5.8,1.6-9.3,4.8-8.8,10.7C115.8,116.4,119.1,118.9,124.4,120.2 M94.9,110.4c0-8.2-6.6-14.9-14.8-15c-7.7-0.1-14.7,6.8-14.8,14.5
			c0,8.3,6.4,15.1,14.5,15.2C88.1,125.2,94.9,118.6,94.9,110.4"/>
	</g>
	<g>
		<path class="st0" d="M142,100.8c-0.1-2.7-0.7-4.8-3.3-5.7c-2.6-0.9-4.2,0.6-6,2.4c-1.9-1.7-3.7-3.4-5.6-5.1
			c0.6-0.9,1.1-1.5,1.5-2.2c1.6-2.9-0.1-6.4-3.4-6.6c-1.9-0.1-2.4-0.8-2.4-2.6c0-1.6-0.1-3.2-0.2-4.8c6.8-1.9,7.9-4.9,3.4-9.8
			c1.7-1.9,3.3-3.8,5.1-5.8c0.6,0.4,1.1,0.6,1.5,0.9c3.5,2.4,7.2,0.8,7.6-3.4c0.1-1.4,0.6-1.8,1.8-1.8c2.1,0,4.1,0,6.3,0
			c0,2.7,0.8,4.6,3.2,5.5c2.4,0.9,4.1-0.3,6-2.2c1.8,1.6,3.6,3.2,5.5,4.8c-2,2-3,4-1.8,6.4c1.1,2.3,3.3,2.8,6.1,2.4
			c0.1,2.7,0.3,5.2,0.4,7.9c-2.8,0.1-5.1,0.8-6,3.6c-0.8,2.5,0.8,4.1,2.6,5.8c-1.7,2-3.4,3.9-5.2,5.8c-0.9-0.6-1.5-1.1-2.2-1.5
			c-3-1.8-6.5-0.1-6.7,3.4c-0.1,2.1-1.1,2.5-2.8,2.5C145.7,100.8,144,100.8,142,100.8 M152.3,78c0-4-3.4-7.3-7.4-7.3
			c-4,0-7.4,3.7-7.3,7.7c0.1,3.8,3.5,7,7.5,7C149.2,85.4,152.4,82.1,152.3,78"/>
	</g>
</g>
</svg>
