<?xml version="1.0" encoding="utf-8"?>
<!-- Generator: Adobe Illustrator 19.0.0, SVG Export Plug-In . SVG Version: 6.00 Build 0)  -->
<svg version="1.1" id="Layer_1" xmlns="http://www.w3.org/2000/svg" xmlns:xlink="http://www.w3.org/1999/xlink" x="0px" y="0px"
	 width="203.2px" height="203.2px" viewBox="0 0 203.2 203.2" style="enable-background:new 0 0 203.2 203.2;" xml:space="preserve"
	>
<style type="text/css">
	.st0{fill:#FFFFFF;}
</style>
<g>
	<path class="st0" d="M101.6,203.2C45.6,203.2,0,157.6,0,101.6C0,45.6,45.6,0,101.6,0s101.6,45.6,101.6,101.6
		C203.2,157.6,157.6,203.2,101.6,203.2z M101.6,4C47.8,4,4,47.8,4,101.6c0,53.8,43.8,97.6,97.6,97.6c53.8,0,97.6-43.8,97.6-97.6
		C199.2,47.8,155.4,4,101.6,4z"/>
</g>
<g>
	<path class="st0" d="M71.4,72.2c1.5-4.1,3.7-7.6,6.5-10.5c2.8-3,6.1-5.3,10.1-7c3.9-1.7,8.3-2.5,13.2-2.5c6.3,0,11.5,0.9,15.7,2.6
		c4.2,1.8,7.6,3.9,10.1,6.6c2.6,2.6,4.4,5.4,5.5,8.4c1.1,3,1.7,5.8,1.7,8.4c0,4.3-0.6,7.9-1.7,10.7c-1.1,2.8-2.5,5.2-4.1,7.2
		c-1.6,2-3.4,3.7-5.4,5.1c-2,1.4-3.9,2.8-5.6,4.2c-1.8,1.4-3.3,3-4.7,4.8c-1.4,1.8-2.2,4.1-2.6,6.8v5.1H92.2V116
		c0.3-3.9,1-7.1,2.2-9.7c1.2-2.6,2.6-4.8,4.2-6.7c1.6-1.8,3.3-3.4,5-4.8c1.8-1.4,3.4-2.7,4.9-4.1c1.5-1.4,2.7-2.8,3.6-4.5
		c0.9-1.6,1.3-3.7,1.3-6.1c0-4.1-1-7.2-3-9.2c-2-2-4.8-3-8.3-3c-2.4,0-4.4,0.5-6.2,1.4c-1.7,0.9-3.1,2.2-4.2,3.8
		c-1.1,1.6-1.9,3.4-2.5,5.5c-0.5,2.1-0.8,4.4-0.8,6.8H69C69.1,80.7,69.9,76.2,71.4,72.2 M111.1,151H90.3v-20.8h20.8V151z"/>
</g>
</svg>
