<?xml version="1.0" encoding="utf-8"?>
<!-- Generator: Adobe Illustrator 19.0.0, SVG Export Plug-In . SVG Version: 6.00 Build 0)  -->
<svg version="1.1" id="Layer_1" xmlns="http://www.w3.org/2000/svg" xmlns:xlink="http://www.w3.org/1999/xlink" x="0px" y="0px"
	 width="203.2px" height="203.2px" viewBox="0 0 203.2 203.2" style="enable-background:new 0 0 203.2 203.2;" xml:space="preserve"
	>
<style type="text/css">
	.st0{fill:#FFFFFF;}
</style>
<g>
	<path class="st0" d="M99.8,203.6C43.8,203.6-1.7,158-1.7,102S43.8,0.4,99.8,0.4S201.4,46,201.4,102S155.9,203.6,99.8,203.6z
		 M99.8,4.4C46,4.4,2.3,48.2,2.3,102c0,53.8,43.8,97.6,97.6,97.6c53.8,0,97.6-43.8,97.6-97.6C197.4,48.2,153.7,4.4,99.8,4.4z"/>
</g>
<g>
	<g>
		<path class="st0" d="M84.9,139.7c-13.8,0-27.7-5.3-38.2-15.8c-21.1-21.1-21.1-55.3,0-76.4s55.3-21.1,76.4,0l0,0
			c21.1,21.1,21.1,55.3,0,76.4C112.6,134.4,98.8,139.7,84.9,139.7z M84.9,43.7c-10.8,0-21.5,4.1-29.7,12.3
			c-16.4,16.4-16.4,43,0,59.4c16.4,16.4,43,16.4,59.4,0c16.4-16.4,16.4-43,0-59.4C106.4,47.8,95.7,43.7,84.9,43.7z"/>
	</g>
	<g>
		<path class="st0" d="M160.5,162.9l-1.2,1.2c-3,3-8,3-11,0l-31.4-31.4c-3-3-3-8,0-11l1.2-1.2c3-3,8-3,11,0l31.4,31.4
			C163.5,154.8,163.5,159.8,160.5,162.9z"/>
	</g>
</g>
</svg>
