<?xml version="1.0" encoding="utf-8"?>
<!-- Generator: Adobe Illustrator 19.0.0, SVG Export Plug-In . SVG Version: 6.00 Build 0)  -->
<svg version="1.1" id="Layer_1" xmlns="http://www.w3.org/2000/svg" xmlns:xlink="http://www.w3.org/1999/xlink" x="0px" y="0px"
	 width="121.7px" height="121.7px" viewBox="0 0 121.7 121.7" style="enable-background:new 0 0 121.7 121.7;" xml:space="preserve"
	>
<style type="text/css">
	.st0{fill:#FFFFFF;}
</style>
<g>
	<g>
		<path class="st0" d="M60.8,121.7C27.3,121.7,0,94.4,0,60.8S27.3,0,60.8,0c33.5,0,60.8,27.3,60.8,60.8S94.4,121.7,60.8,121.7z
			 M60.8,2.4C28.6,2.4,2.4,28.6,2.4,60.8s26.2,58.4,58.4,58.4c32.2,0,58.4-26.2,58.4-58.4S93.1,2.4,60.8,2.4z"/>
	</g>
	<g>
		<polygon class="st0" points="101.6,76.4 75.9,53.2 75.9,66.4 54.2,66.4 54.2,88.1 75.9,88.1 75.9,99.6 		"/>
	</g>
	<g>
		<polygon class="st0" points="19.4,48.3 45.1,71.5 45.1,58.3 66.8,58.3 66.8,36.5 45.1,36.5 45.1,25.1 		"/>
	</g>
</g>
</svg>
