<?xml version="1.0" encoding="utf-8"?>
<!-- Generator: Adobe Illustrator 19.0.0, SVG Export Plug-In . SVG Version: 6.00 Build 0)  -->
<svg version="1.1" id="Layer_1" xmlns="http://www.w3.org/2000/svg" xmlns:xlink="http://www.w3.org/1999/xlink" x="0px" y="0px"
	 width="203.2px" height="203.2px" viewBox="0 0 203.2 203.2" style="enable-background:new 0 0 203.2 203.2;" xml:space="preserve"
	>
<style type="text/css">
	.st0{fill:none;stroke:#FFFFFF;stroke-width:4;stroke-miterlimit:10;}
	.st1{fill:#FFFFFF;}
</style>
<g>
	<circle class="st0" cx="101.6" cy="101.6" r="99.6"/>
	<path class="st1" d="M41,68.8c5.1,5.1,10.1,10.1,15,15.1c1.1,1.1,1.9,1.4,3.5,0.9c4.5-1.5,9.1-2.8,13.6-4.1
		c0.9-0.3,1.3-0.7,1.6-1.5c1.7-5.2,3.4-10.4,5.2-15.5c0.3-1,0.1-1.5-0.6-2.2c-5.1-5-10.3-10-15.5-15.1c2.3-2.4,4.3-4.6,6.4-6.8
		c0.2-0.2,0.6-0.3,0.9-0.3c15.6,1.5,27.8,12.9,30.6,24.3c0.8,3,0.9,6.3,0.8,9.5c-0.1,5.3,0.2,10.6,1.6,15.8c0.3,1,0.9,2.1,1.7,2.9
		c16.3,16.3,32.7,32.6,49.1,48.8c2.6,2.6,3.3,5.5,1.9,8.7c-2.7,6.6-7.4,11.3-14,14.1c-3.3,1.4-6.2,0.7-8.8-2.1
		c-16.5-17.3-33.1-34.5-49.6-51.7c-1-1-2.1-1.7-3.5-1.7c-3.7,0.1-7.4,0.1-11.1,0.5c-15,1.5-25.9-4.4-32.9-17.9
		c-2.6-5.1-4-10.4-4.1-16.1c0-0.5,0.3-1.3,0.7-1.5C36.1,71.4,38.5,70.1,41,68.8 M71.4,46.4c4.1,4,8.1,8,12.2,11.9
		c1.9,1.8,2.4,3.9,1.5,6.4c-1.9,5.6-3.8,11.2-5.6,16.8c-0.7,2.2-2.1,3.5-4.3,4.2c-5.2,1.5-10.4,3-15.5,4.6c-2.5,0.8-4.5,0.3-6.4-1.6
		c-4.1-4.2-8.3-8.3-12.4-12.4c-0.4-0.3-1.1-0.5-1.6-0.5c-0.9,0.1-0.9,0.8-0.8,1.6c0.8,6.1,3.1,11.6,7,16.3
		c5.8,7.1,13.1,10.8,22.5,9.5c3.6-0.5,7.3-0.6,10.9-0.6c4.3-0.1,7.7,1.4,10.9,4.7c15.9,16.9,32,33.5,48.1,50.2
		c1.4,1.5,1.9,1.6,3.8,0.7c4.5-2.2,7.9-5.6,10.1-10.1c1-2,0.8-2.4-0.7-3.9c-16.1-16-32.1-32-48.3-47.9c-2.3-2.2-3.6-4.7-4.2-7.7
		c-1-5-1.5-10.1-1.2-15.2c0.4-5.5-0.6-10.7-3.9-15.2c-4.9-6.9-11.5-11.2-19.7-13C72.8,44.8,72.1,45,71.4,46.4"/>
	<path class="st1" d="M119,97c-1.2-1.2-2.4-2.4-3.8-3.7c1-1,2.2-2,3.3-3.1c3-3,5.9-6,8.9-8.9c1-1,2.1-2,3.2-2.9
		c3.2-2.4,6.7-3.2,10.4-1.2c3.9,2.1,6.1,5.4,5.7,9.9c-0.1,1.6,0.3,2.6,1.4,3.6c2.1,1.9,4,4,6,6c4.7-4.7,9.2-9.2,13.9-13.9
		c-2.3-2.4-4.8-4.8-7.3-7.3c-0.2-0.2-0.6-0.2-0.9-0.2c-7.2,0.6-11.9-3.3-12.3-10.6c-0.1-2-0.8-3.5-2.3-4.8c-1.4-1.3-2.8-2.6-4-4
		c-0.9-1-1.9-1.4-3.1-1.4c-3.8,0.1-6.9-1.5-9.6-4.1c-5.4-5.1-14-6.7-21.1-4.2c0.6,0.3,1,0.6,1.4,0.9c4.7,2.5,9.1,5.5,12.4,9.8
		c3.1,4.1,4.4,8.6,2.2,13.6c-0.4,1-1.1,1.9-1.7,2.8c-0.4,0.6-1,1.1-1.5,1.7c-3.6,3.6-7.3,7.3-11.2,11.2c-0.3-2.3-0.6-4.3-0.8-6.3
		c0-0.4,0.4-0.9,0.8-1.2c2.6-2.6,5.2-5.2,7.7-7.8c2.9-2.9,3.3-6,1.2-9.5c-1.7-2.8-4-5-6.8-6.7c-2.7-1.7-5.6-3.1-8.4-4.5
		c-1.7-0.8-2.9-1.8-3-3.8c-0.1-1.9,1-3.1,2.7-3.9c10.2-5,22.3-3.2,30.5,4.7c1.6,1.5,3.4,2,5.5,2c2.7,0,4.9,0.9,6.7,3
		c1.7,1.9,3.6,3.7,5.5,5.5c1.2,1.2,1.9,2.6,2,4.2c0.1,1.4,0.2,2.8,0.5,4.2c0.8,3.4,4,5,7.1,3.5c1.3-0.7,2-0.3,2.9,0.6
		c2.9,3,5.9,5.9,8.8,8.8c2.4,2.5,2.4,5.4,0,7.8c-4.5,4.5-8.9,8.9-13.4,13.4c-2.7,2.7-5.4,2.6-8.1-0.1c-3-3-5.9-6-8.9-8.9
		c-0.8-0.7-0.9-1.3-0.4-2.3c1.3-2.6,0.6-5.1-1.6-6.8c-1.4-1.1-3-1.3-4.5-0.3c-1.3,0.9-2.6,1.9-3.7,3C127,89,123,93.1,119,97"/>
	<path class="st1" d="M75.4,113.2c-0.5,0.3-1,0.5-1.4,0.9c-10.7,10.1-21.3,20.2-32,30.2c-1.3,1.2-1.5,2.4-0.8,3.8
		c2.4,5,6.2,8.8,11.2,11.2c1.5,0.7,2.7,0.6,4-0.7c11.1-11,22.2-22,33.3-33c0.5-0.5,0.8-1,1.3-1.7c1.4,1.5,2.6,2.7,3.9,4.1
		c-0.9,0.9-1.8,1.6-2.6,2.4c-10.8,10.7-21.7,21.4-32.5,32.1c-2.3,2.3-4.9,3.1-7.8,2c-8.2-2.9-13.8-8.5-16.4-16.8
		c-0.8-2.6,0-4.9,2-6.8c9.3-8.8,18.5-17.6,27.8-26.3c0.5-0.4,1.2-0.7,1.8-0.8c2.1-0.4,4.2-0.7,6.4-1.1c0.4-0.1,0.8-0.1,1.3-0.2
		C75.2,112.9,75.3,113,75.4,113.2"/>
</g>
</svg>
