<?xml version="1.0" encoding="utf-8"?>
<!-- Generator: Adobe Illustrator 19.0.0, SVG Export Plug-In . SVG Version: 6.00 Build 0)  -->
<svg version="1.1" id="Layer_1" xmlns="http://www.w3.org/2000/svg" xmlns:xlink="http://www.w3.org/1999/xlink" x="0px" y="0px"
	 width="203.2px" height="203.2px" viewBox="0 0 203.2 203.2" style="enable-background:new 0 0 203.2 203.2;" xml:space="preserve"
	>
<style type="text/css">
	.st0{fill:#ECA822;}
</style>
<g>
	<g>
		<path class="st0" d="M101.6,203.2C45.6,203.2,0,157.6,0,101.6S45.6,0,101.6,0s101.6,45.6,101.6,101.6S157.6,203.2,101.6,203.2z
			 M101.6,4C47.8,4,4,47.8,4,101.6c0,53.8,43.8,97.6,97.6,97.6c53.8,0,97.6-43.8,97.6-97.6C199.2,47.8,155.4,4,101.6,4z"/>
	</g>
	<g>
		<path class="st0" d="M56.5,124.7c6.4,17.4,28.6,31,48.5,29.9c23.8-1.3,43-17.2,48.4-39.8c5.2-22.1-4.7-45.3-24.3-56.5
			c-10.2-5.8-21.1-8.1-32.7-6.5c-16,2.2-28.2,10.4-37.2,23.7c-3.6-1.7-6.9-3.3-10.8-5.1c1.4,12.2,2.7,23.6,4,35.6
			c10.9-6,21.3-11.8,32.2-17.8c-4.1-2.1-7.8-3.9-11.5-5.8c8-12.8,24.7-18.7,40.1-14.4c15.1,4.2,26,18.4,26.3,34.2
			c0.3,16.2-10,30.7-25.3,35.5c-17.3,5.5-32.1-0.8-44.5-19C65.5,120.6,61.1,122.6,56.5,124.7 M102.7,108.9c3.1-0.7,5.6-1.5,8.3-1.8
			c5.2-0.6,10.5-0.9,15.7-1.2c2-0.1,3.6-0.8,3.7-3c0-2.2-1.5-3-3.6-3.1c-5.5-0.3-10.9-0.9-16.3-1.1c-2.4-0.1-3-1-3.1-3.2
			c-0.3-7.4-0.8-14.9-1.2-22.3c-0.1-2-0.8-3.6-3-3.7c-2.2,0-3,1.5-3.1,3.6c-0.2,3.9-0.2,7.8-0.7,11.6c-0.6,5.7,0.1,11.4-2.1,17
			C96,105.2,99.4,109,102.7,108.9"/>
	</g>
	<g>
		<path class="st0" d="M56.5,124.7c4.6-2.1,8.9-4.1,13.3-6.1c12.3,18.2,27.2,24.5,44.5,19c15.3-4.8,25.6-19.3,25.3-35.5
			c-0.3-15.8-11.2-30-26.3-34.2c-15.4-4.3-32.1,1.6-40.1,14.4c3.7,1.8,7.3,3.7,11.5,5.8c-10.9,6-21.4,11.8-32.2,17.8
			c-1.4-12-2.6-23.4-4-35.6c3.9,1.8,7.2,3.4,10.8,5.1c8.9-13.3,21.2-21.5,37.2-23.7c11.6-1.6,22.5,0.7,32.7,6.6
			c19.5,11.2,29.5,34.4,24.3,56.5c-5.3,22.7-24.6,38.5-48.4,39.8C85.1,155.7,62.9,142.1,56.5,124.7"/>
	</g>
	<g>
		<path class="st0" d="M102.7,108.9c-3.3,0-6.7-3.7-5.4-7.2c2.2-5.6,1.4-11.4,2.1-17c0.4-3.8,0.5-7.7,0.7-11.6
			c0.1-2.1,0.9-3.6,3.1-3.6c2.2,0,2.9,1.6,3,3.7c0.4,7.4,0.9,14.9,1.2,22.3c0.1,2.2,0.7,3.1,3.1,3.2c5.5,0.2,10.9,0.8,16.3,1.1
			c2.1,0.1,3.6,0.9,3.6,3.1c0,2.2-1.6,2.9-3.7,3c-5.3,0.3-10.5,0.6-15.7,1.2C108.3,107.4,105.8,108.3,102.7,108.9"/>
	</g>
</g>
</svg>
