<?xml version="1.0" encoding="utf-8"?>
<!-- Generator: Adobe Illustrator 19.0.0, SVG Export Plug-In . SVG Version: 6.00 Build 0)  -->
<svg version="1.1" id="Layer_1" xmlns="http://www.w3.org/2000/svg" xmlns:xlink="http://www.w3.org/1999/xlink" x="0px" y="0px"
	 width="121.7px" height="121.7px" viewBox="0 0 121.7 121.7" style="enable-background:new 0 0 121.7 121.7;" xml:space="preserve"
	>
<style type="text/css">
	.st0{fill:#ECA822;}
</style>
<g>
	<g>
		<path class="st0" d="M60.8,121.7C27.3,121.7,0,94.4,0,60.8C0,27.3,27.3,0,60.8,0c33.5,0,60.8,27.3,60.8,60.8
			C121.7,94.4,94.4,121.7,60.8,121.7z M60.8,2.4C28.6,2.4,2.4,28.6,2.4,60.8c0,32.2,26.2,58.4,58.4,58.4c32.2,0,58.4-26.2,58.4-58.4
			C119.3,28.6,93.1,2.4,60.8,2.4z"/>
	</g>
	<g>
		<path class="st0" d="M40.7,39.9h-9.5c-1.7,0-3-1.4-3-3c0-1.7,1.4-3,3-3h9.5c1.7,0,3,1.4,3,3C43.8,38.5,42.4,39.9,40.7,39.9"/>
	</g>
	<g>
		<path class="st0" d="M40.7,49.9h-9.5c-1.7,0-3-1.4-3-3c0-1.7,1.4-3,3-3h9.5c1.7,0,3,1.4,3,3C43.8,48.6,42.4,49.9,40.7,49.9"/>
	</g>
	<g>
		<path class="st0" d="M40.7,60h-9.5c-1.7,0-3-1.4-3-3c0-1.7,1.4-3,3-3h9.5c1.7,0,3,1.4,3,3C43.8,58.6,42.4,60,40.7,60"/>
	</g>
	<g>
		<path class="st0" d="M40.7,70h-9.5c-1.7,0-3-1.4-3-3s1.4-3,3-3h9.5c1.7,0,3,1.4,3,3S42.4,70,40.7,70"/>
	</g>
	<g>
		<path class="st0" d="M40.7,80.1h-9.5c-1.7,0-3-1.4-3-3c0-1.7,1.4-3,3-3h9.5c1.7,0,3,1.4,3,3C43.8,78.7,42.4,80.1,40.7,80.1"/>
	</g>
	<g>
		<path class="st0" d="M40.7,90.1h-9.5c-1.7,0-3-1.4-3-3c0-1.7,1.4-3,3-3h9.5c1.7,0,3,1.4,3,3C43.8,88.8,42.4,90.1,40.7,90.1"/>
	</g>
	<g>
		<path class="st0" d="M35.9,95.1h50V26.5h-50V95.1z M43.5,78.9c0,0,1.4-4.3,3.2-7.7c1.7-3.3,8.4-3.3,8.4-3.3l1.3-3.4
			c-2.4-2.1-4-5.7-4-9.9c0-6.5,3.8-11.7,8.5-11.7s8.5,5.2,8.5,11.7c0,3.9-1.4,7.3-3.5,9.4l1.3,3.1c0,0,4.3,2,7.5,4.3
			c3.2,2.3,3.5,7.5,3.5,7.5H43.5z"/>
	</g>
</g>
</svg>
