<?xml version="1.0" encoding="utf-8"?>
<!-- Generator: Adobe Illustrator 19.0.0, SVG Export Plug-In . SVG Version: 6.00 Build 0)  -->
<svg version="1.1" id="Layer_1" xmlns="http://www.w3.org/2000/svg" xmlns:xlink="http://www.w3.org/1999/xlink" x="0px" y="0px"
	 width="121.7px" height="121.7px" viewBox="0 0 121.7 121.7" style="enable-background:new 0 0 121.7 121.7;" xml:space="preserve"
	>
<style type="text/css">
	.st0{fill:#EDA820;}
</style>
<g>
	<g>
		<path class="st0" d="M60.8,121.7C27.3,121.7,0,94.4,0,60.8S27.3,0,60.8,0c33.5,0,60.8,27.3,60.8,60.8S94.4,121.7,60.8,121.7z
			 M60.8,2.4C28.6,2.4,2.4,28.6,2.4,60.8s26.2,58.4,58.4,58.4c32.2,0,58.4-26.2,58.4-58.4S93.1,2.4,60.8,2.4z"/>
	</g>
	<g>
		<polygon class="st0" points="90,93.3 39.2,93.3 39.2,70.9 32.3,70.9 32.3,61.8 39.2,61.8 39.2,52.6 32.3,52.6 32.3,43.4 
			39.2,43.4 39.2,21.7 53.8,21.7 53.8,43.4 70.7,43.4 70.7,52.6 53.8,52.6 53.8,61.8 70.7,61.8 70.7,70.9 53.8,70.9 53.8,81.1 
			90,81.1 		"/>
	</g>
</g>
</svg>
