<?xml version="1.0" encoding="utf-8"?>
<!-- Generator: Adobe Illustrator 19.0.0, SVG Export Plug-In . SVG Version: 6.00 Build 0)  -->
<svg version="1.1" id="Layer_1" xmlns="http://www.w3.org/2000/svg" xmlns:xlink="http://www.w3.org/1999/xlink" x="0px" y="0px"
	 width="203.2px" height="203.2px" viewBox="0 0 203.2 203.2" style="enable-background:new 0 0 203.2 203.2;" xml:space="preserve"
	>
<style type="text/css">
	.st0{fill:#FFFFFF;}
	.st1{fill:none;stroke:#FFFFFF;stroke-width:4;stroke-miterlimit:10;}
</style>
<g>
	<path class="st0" d="M43.6,140.1V62.7c0.2-0.5,0.4-1,0.5-1.4c1.9-6.9,8.1-12.1,15.2-12.1c25.1-0.1,50.2-0.1,75.3,0
		c7.7,0,13.8,6.4,14,14.1c0.1,2.8,0.2,5.6,0,8.4c-0.2,2.6,0.3,4.3,3,5.6c3.7,1.8,5.9,5.2,7.2,9.2c0.2,0.7,0.5,1.4,0.8,2.1v51.6
		c-0.2,0.6-0.5,1.2-0.7,1.9c-2.1,7.1-8.5,12.1-16,12.2c-27.5,0.1-55.1,0-82.6,0c-7,0-13.2-4.6-15.6-11.1C44.3,142,44,141,43.6,140.1
		 M51,79c-0.1,0.7-0.1,0.9-0.1,1.1c0,19,0,38,0,57c0,5.6,4.2,9.7,9.8,9.7c6.2,0.1,12.4,0,18.6,0c20.9,0,41.8,0,62.7,0
		c5.4,0,9.5-3.1,10.2-8.1c0.4-2.9,0.1-6,0.1-9.1c-5.2,0-10.2,0.1-15.3,0c-7.5-0.1-13.6-6.2-13.6-13.6c0-7.3,6.1-13.4,13.6-13.5
		c4.4-0.1,8.9,0,13.4,0c0.6,0,1.3-0.1,2-0.1c0-3.4,0-6.5,0-9.7c0-7.2-3.8-11-11.1-11c-25.7,0-51.4,0-77.2,0
		C59.6,81.7,55.2,81.7,51,79 M141.4,74.4c0-3.4,0-6.4,0-9.5c0-5.9-2.7-8.6-8.5-8.6c-22.8,0-45.5,0-68.3,0c-1.7,0-3.5-0.1-5.2,0
		c-6.3,0.4-10.2,6.7-7.8,12.4c1.5,3.6,4.7,5.6,9.2,5.6c26.2,0,52.3,0,78.5,0H141.4z M152.2,109.7c-5.2,0-10.2-0.1-15.2,0
		c-3.6,0.1-6.4,2.9-6.5,6.2c0,3.5,2.8,6.3,6.6,6.4c2.8,0.1,5.6,0,8.4,0c2.2,0,4.5,0,6.7,0V109.7z"/>
	<rect x="58.3" y="61.9" class="st0" width="75.8" height="7"/>
	<path class="st0" d="M137.8,119.7c-1.9,0-3.6-1.6-3.6-3.6c0-1.9,1.6-3.6,3.5-3.6c2-0.1,3.7,1.7,3.7,3.7
		C141.4,118.1,139.7,119.7,137.8,119.7"/>
	<circle class="st1" cx="101.6" cy="101.6" r="99.6"/>
</g>
</svg>
