<?xml version="1.0" encoding="utf-8"?>
<!-- Generator: Adobe Illustrator 19.0.0, SVG Export Plug-In . SVG Version: 6.00 Build 0)  -->
<svg version="1.1" id="Layer_1" xmlns="http://www.w3.org/2000/svg" xmlns:xlink="http://www.w3.org/1999/xlink" x="0px" y="0px"
	 width="121.7px" height="121.7px" viewBox="0 0 121.7 121.7" style="enable-background:new 0 0 121.7 121.7;" xml:space="preserve"
	>
<style type="text/css">
	.st0{fill:#FFFFFF;}
</style>
<g>
	<g>
		<path class="st0" d="M60.8,0c33.5,0,60.8,27.3,60.8,60.8c0,33.5-27.3,60.8-60.8,60.8C27.3,121.7,0,94.4,0,60.8
			C0,27.3,27.3,0,60.8,0z M60.8,119.3c32.2,0,58.4-26.2,58.4-58.4c0-32.2-26.2-58.4-58.4-58.4C28.6,2.4,2.4,28.6,2.4,60.8
			C2.4,93.1,28.6,119.3,60.8,119.3z"/>
	</g>
	<g>
		<polygon class="st0" points="96.3,84.5 62.3,27.9 25.3,84.5 		"/>
	</g>
</g>
</svg>
