<?xml version="1.0" encoding="utf-8"?>
<!-- Generator: Adobe Illustrator 19.0.0, SVG Export Plug-In . SVG Version: 6.00 Build 0)  -->
<svg version="1.1" id="Layer_1" xmlns="http://www.w3.org/2000/svg" xmlns:xlink="http://www.w3.org/1999/xlink" x="0px" y="0px"
	 width="203.2px" height="203.2px" viewBox="0 0 203.2 203.2" style="enable-background:new 0 0 203.2 203.2;" xml:space="preserve"
	>
<style type="text/css">
	.st0{fill:#EDA821;}
</style>
<g>
	<g>
		<path class="st0" d="M101.6,203.2C45.6,203.2,0,157.6,0,101.6S45.6,0,101.6,0c56,0,101.6,45.6,101.6,101.6
			S157.6,203.2,101.6,203.2z M101.6,4C47.8,4,4,47.8,4,101.6c0,53.8,43.8,97.6,97.6,97.6c53.8,0,97.6-43.8,97.6-97.6
			C199.2,47.8,155.4,4,101.6,4z"/>
	</g>
	<g>
		<path class="st0" d="M137.1,165.5H66c-5.2-1.9-8.8-5.1-8.9-11.1c-0.1-18.5-0.1-37.1,0-55.6c0-5.5,3.4-9.5,8.7-10.8
			c0.7-0.2,1.5-0.4,2.5-0.6c0-5.9-0.2-11.9,0-17.8c0.4-10.2,4.8-18.5,12.8-24.9c4.9-4,10.7-5.8,16.7-7h7.4c0.2,0.1,0.5,0.3,0.7,0.4
			c18.4,3.5,28.9,16.1,28.9,34.9c0,4.8,0,9.6,0,14.4c9.1,2.6,11.1,5.3,11.1,14.6c0,16.5-0.2,33.1,0.1,49.6
			C146.1,158.5,143.8,163.2,137.1,165.5 M134.8,99H68.3v55.1h66.5V99z M123.8,87.5c0-6.1,0.2-11.9,0-17.7
			c-0.5-10.6-9.1-19.8-19.1-20.7c-12-1.1-22.4,5.4-24.5,16.6c-1.3,7-0.9,14.4-1.2,21.8H123.8z"/>
	</g>
	<g>
		<path class="st0" d="M89.9,121.1c0.7-5.4,4.1-9.6,9.2-10.9c4.8-1.2,9.8,1.1,12.2,5.5c2.4,4.5,1.6,10.1-2.4,13.4
			c-1.5,1.3-2,2.5-1.9,4.3c0.1,1.6,0.1,3.2-0.1,4.8c-0.3,2.8-2.5,4.9-5.3,4.9c-2.9,0.1-5.2-2-5.5-5c-0.1-0.7-0.1-1.5-0.1-2.3
			c0.2-3.1-0.1-5.6-2.8-8C91.5,126.5,90.9,123.5,89.9,121.1"/>
	</g>
</g>
</svg>
