<?xml version="1.0" encoding="utf-8"?>
<!-- Generator: Adobe Illustrator 19.0.0, SVG Export Plug-In . SVG Version: 6.00 Build 0)  -->
<svg version="1.1" id="Layer_1" xmlns="http://www.w3.org/2000/svg" xmlns:xlink="http://www.w3.org/1999/xlink" x="0px" y="0px"
	 width="203.2px" height="203.2px" viewBox="0 0 203.2 203.2" style="enable-background:new 0 0 203.2 203.2;" xml:space="preserve"
	>
<style type="text/css">
	.st0{fill:none;stroke:#FFFFFF;stroke-width:4;stroke-miterlimit:10;}
	.st1{fill:#FFFFFF;}
</style>
<g>
	<circle class="st0" cx="101.6" cy="101.6" r="99.6"/>
	<path class="st1" d="M42.2,56.6v67.8H59v21.5c1.3-0.9,2-1.3,2.7-1.9c7.3-5.8,14.6-11.8,22-17.5c1.5-1.2,3.8-2,5.7-2
		c11.4-0.2,22.8-0.1,34.2-0.1h3.3V56.6H42.2z M118.6,116c-1.1,0.1-2.1,0.1-3.2,0.1c-10,0-20-0.1-29.9,0.1c-1.5,0-3.1,0.6-4.3,1.5
		c-3.7,2.7-7.3,5.7-10.9,8.6c-0.8,0.6-1.6,1.1-2.8,2v-12.1H50.8V65.1h67.8V116z"/>
	<path class="st1" d="M144.2,141.3V163c-4.2-3.4-8-6.3-11.7-9.3c-4.4-3.5-8.7-7.2-13.2-10.5c-1.3-0.9-3.1-1.6-4.6-1.6
		c-12-0.1-23.9-0.1-36.9-0.1c3.8-3,7-5.6,10.2-8c0.5-0.4,1.5-0.3,2.3-0.3c9.3,0,18.5-0.1,27.8,0c1.3,0,2.7,0.6,3.8,1.3
		c4.5,3.4,9,7.1,13.8,10.9v-12.2h16.9V81.9h-16.6v-8.2H161v67.7H144.2z"/>
</g>
</svg>
