<?xml version="1.0" encoding="utf-8"?>
<!-- Generator: Adobe Illustrator 19.0.0, SVG Export Plug-In . SVG Version: 6.00 Build 0)  -->
<svg version="1.1" id="Layer_1" xmlns="http://www.w3.org/2000/svg" xmlns:xlink="http://www.w3.org/1999/xlink" x="0px" y="0px"
	 width="175px" height="57.1px" viewBox="0 0 175 57.1" style="enable-background:new 0 0 175 57.1;" xml:space="preserve">
<style type="text/css">
	.st0{fill:#EDA822;}
	.st1{fill:#1D1D1B;}
	.st2{fill:#EDA724;}
</style>
<g>
	<path class="st0" d="M57.1,28.5c0,15.8-12.8,28.5-28.5,28.5C12.8,57.1,0,44.3,0,28.5S12.8,0,28.5,0C44.3,0,57.1,12.8,57.1,28.5"/>
	<path class="st1" d="M50.8,28.5c0,12.3-9.9,22.2-22.2,22.2S6.3,40.8,6.3,28.5c0-12.3,9.9-22.2,22.2-22.2S50.8,16.3,50.8,28.5"/>
	<polygon class="st0" points="40,42.8 19.8,42.8 19.8,33.9 17.1,33.9 17.1,30.2 19.8,30.2 19.8,26.6 17.1,26.6 17.1,23 19.8,23 
		19.8,14.3 25.6,14.3 25.6,23 32.4,23 32.4,26.6 25.6,26.6 25.6,30.2 32.4,30.2 32.4,33.9 25.6,33.9 25.6,38 40,38 	"/>
	<polygon class="st2" points="66.6,19 72.1,19 72.1,34.6 79.8,34.6 79.8,39.2 66.6,39.2 	"/>
	<polygon class="st2" points="95.2,31 87.9,31 87.9,34.7 96,34.7 96,39.2 82.5,39.2 82.5,19 95.6,19 95.6,23.4 87.9,23.4 87.9,26.6 
		95.2,26.6 	"/>
	<path class="st2" d="M107.9,39.5c-6.3,0-9.7-4.7-9.7-10.3c0-5.9,3.8-10.6,10.1-10.6c6.5,0,9.8,4.8,9.8,10.2
		C118,35.4,114.1,39.5,107.9,39.5L107.9,39.5z M108.2,35.2c2.6,0,4.1-2.5,4.1-6.2c0-3.5-1.6-6.1-4.2-6.1c-2.6,0-4.2,2.6-4.2,6.2
		C103.9,32.7,105.5,35.2,108.2,35.2L108.2,35.2z"/>
	<path class="st2" d="M132.1,38.8c-0.9,0.4-2.4,0.6-4,0.6c-4.9,0-8-2.9-8-7.6c0-4.2,2.9-7.8,8.7-7.8c1,0,2.3,0.2,3.4,0.5l-0.7,4
		c-0.5-0.2-1.2-0.4-2.3-0.4c-2,0-3.4,1.4-3.4,3.5c0,2.4,1.7,3.5,3.6,3.5c0.9,0,1.7-0.1,2.4-0.4L132.1,38.8z"/>
	<path class="st2" d="M141,39.5c-4.4,0-7.8-2.8-7.8-7.6c0-4.7,3.1-7.8,8.1-7.8c4.6,0,7.7,3.1,7.7,7.6C149,37,145.1,39.5,141,39.5
		L141,39.5z M141.1,35.7c1.5,0,2.3-1.5,2.3-3.9c0-2-0.7-3.9-2.3-3.9c-1.8,0-2.4,1.9-2.4,3.9C138.8,34,139.5,35.7,141.1,35.7
		L141.1,35.7z"/>
	<path class="st2" d="M154.3,22.9c-1.7,0-2.7-1.1-2.7-2.5c0-1.5,1.1-2.6,2.8-2.6c1.7,0,2.7,1.1,2.8,2.6
		C157,21.7,156,22.9,154.3,22.9L154.3,22.9z M151.6,24.4h5.4v14.8h-5.4V24.4z"/>
	<path class="st2" d="M160.3,29.5c0-2-0.1-3.7-0.1-5h4.7l0.2,1.9h0.1c0.5-0.8,2-2.2,4.4-2.2c3.4,0,5.3,2.3,5.3,6.4v8.7h-5.4v-8
		c0-1.7-0.6-2.7-1.9-2.7c-1.1,0-1.5,0.7-1.8,1.3c-0.1,0.3-0.1,0.7-0.1,1.1v8.4h-5.4V29.5z"/>
</g>
</svg>
