<?xml version="1.0" encoding="utf-8"?>
<!-- Generator: Adobe Illustrator 19.0.0, SVG Export Plug-In . SVG Version: 6.00 Build 0)  -->
<svg version="1.1" id="Layer_1" xmlns="http://www.w3.org/2000/svg" xmlns:xlink="http://www.w3.org/1999/xlink" x="0px" y="0px"
	 width="57.1px" height="57.1px" viewBox="0 0 57.1 57.1" style="enable-background:new 0 0 57.1 57.1;" xml:space="preserve">
<style type="text/css">
	.st0{fill:#EDA822;}
	.st1{fill:#1D1D1B;}
</style>
<g>
	<path class="st0" d="M57.1,28.5c0,15.8-12.8,28.5-28.5,28.5C12.8,57.1,0,44.3,0,28.5S12.8,0,28.5,0C44.3,0,57.1,12.8,57.1,28.5"/>
	<path class="st1" d="M50.8,28.5c0,12.3-9.9,22.2-22.2,22.2S6.3,40.8,6.3,28.5c0-12.3,9.9-22.2,22.2-22.2S50.8,16.3,50.8,28.5"/>
	<polygon class="st0" points="40,42.8 19.8,42.8 19.8,33.9 17.1,33.9 17.1,30.3 19.8,30.3 19.8,26.6 17.1,26.6 17.1,23 19.8,23 
		19.8,14.3 25.6,14.3 25.6,23 32.4,23 32.4,26.6 25.6,26.6 25.6,30.3 32.4,30.3 32.4,33.9 25.6,33.9 25.6,38 40,38 	"/>
</g>
</svg>
