<?xml version="1.0" encoding="utf-8"?>
<!-- Generator: Adobe Illustrator 19.0.0, SVG Export Plug-In . SVG Version: 6.00 Build 0)  -->
<svg version="1.1" id="Logo_with_Lettering" xmlns="http://www.w3.org/2000/svg" xmlns:xlink="http://www.w3.org/1999/xlink"
	 x="0px" y="0px" width="258.3px" height="57.1px" viewBox="0 0 258.3 57.1" style="enable-background:new 0 0 258.3 57.1;"
	 xml:space="preserve">
<style type="text/css">
	.st0{fill:#EDA724;}
	.st1{fill:#FFFFFF;}
	.st2{fill:#EDA822;}
	.st3{fill:#1D1D1B;}
</style>
<path class="st0" d="M66.5,17.1h5.4v15.7h7.8v4.5H66.5V17.1z"/>
<path class="st0" d="M95,29.2h-7.3v3.7h8.1v4.4H82.3V17.1h13.1v4.4h-7.7v3.2H95V29.2z"/>
<path class="st0" d="M107.8,37.7c-6.3,0-9.7-4.7-9.7-10.3c0-5.9,3.8-10.6,10-10.6c6.5,0,9.8,4.8,9.8,10.2
	C117.9,33.5,114,37.7,107.8,37.7L107.8,37.7z M108.1,33.4c2.6,0,4.1-2.5,4.1-6.2c0-3.5-1.6-6.1-4.2-6.1c-2.6,0-4.2,2.6-4.2,6.2
	C103.8,30.8,105.4,33.4,108.1,33.4L108.1,33.4z"/>
<path class="st0" d="M131.9,37c-0.9,0.4-2.4,0.6-4,0.6c-4.9,0-8-2.9-8-7.6c0-4.2,2.9-7.8,8.7-7.8c1,0,2.3,0.2,3.4,0.5l-0.7,4
	c-0.5-0.2-1.2-0.4-2.3-0.4c-2,0-3.4,1.4-3.4,3.5c0,2.4,1.6,3.5,3.6,3.5c0.9,0,1.7-0.1,2.4-0.4L131.9,37z"/>
<path class="st0" d="M140.9,37.7c-4.4,0-7.8-2.8-7.8-7.6c0-4.7,3.1-7.8,8.1-7.8c4.6,0,7.7,3.1,7.7,7.6
	C148.9,35.2,145,37.7,140.9,37.7L140.9,37.7z M141,33.8c1.5,0,2.3-1.5,2.3-3.9c0-2-0.7-3.9-2.3-3.9c-1.8,0-2.4,1.9-2.4,3.9
	C138.6,32.2,139.3,33.8,141,33.8L141,33.8z"/>
<path class="st0" d="M154.1,21c-1.7,0-2.7-1.1-2.7-2.5c0-1.5,1.1-2.6,2.8-2.6c1.7,0,2.7,1.1,2.8,2.6C156.9,19.9,155.8,21,154.1,21
	L154.1,21z M151.4,37.3V22.6h5.4v14.8H151.4z"/>
<path class="st0" d="M160.2,27.6c0-2-0.1-3.7-0.1-5h4.7l0.2,1.9h0.1c0.5-0.8,2-2.2,4.4-2.2c3.5,0,5.3,2.3,5.3,6.4v8.7h-5.4v-8
	c0-1.7-0.6-2.7-1.9-2.7c-1,0-1.5,0.7-1.8,1.3c-0.1,0.3-0.1,0.7-0.1,1.1v8.4h-5.4V27.6z"/>
<path class="st1" d="M189,16.6h1.5l3.2,7.7l3.2-7.7h1.5l-3.7,8.9l4.4,10.3l8.1-19.4h1.7l-9.1,21.2h-1.4l-4.7-10.9L189,37.7h-1.4
	l-9-21.2h1.6l8.1,19.4l4.4-10.3L189,16.6z"/>
<path class="st1" d="M212.4,38c-0.7,0-1.4-0.1-2-0.4s-1.2-0.6-1.6-1c-0.5-0.4-0.8-0.9-1.1-1.5c-0.3-0.6-0.4-1.2-0.4-1.9
	c0-0.7,0.2-1.3,0.5-1.8s0.8-1,1.3-1.4s1.2-0.7,2-1c0.8-0.2,1.7-0.3,2.6-0.3c0.8,0,1.7,0.1,2.5,0.2c0.8,0.1,1.6,0.4,2.3,0.6v-1.5
	c0-1.5-0.4-2.6-1.3-3.5c-0.8-0.9-2-1.3-3.4-1.3c-0.8,0-1.6,0.2-2.4,0.5c-0.8,0.3-1.7,0.8-2.6,1.4l-0.6-1c2-1.4,3.9-2,5.7-2
	c1.9,0,3.3,0.5,4.4,1.6c1.1,1.1,1.6,2.6,1.6,4.5v7.6c0,0.5,0.2,0.7,0.7,0.7v1.3c-0.1,0-0.2,0-0.3,0c-0.1,0-0.2,0-0.3,0
	c-0.4,0-0.7-0.1-1-0.4c-0.2-0.3-0.4-0.6-0.4-1v-1.3c-0.7,0.9-1.6,1.7-2.7,2.1C214.9,37.7,213.7,38,212.4,38z M212.7,36.8
	c1.2,0,2.2-0.2,3.2-0.7c1-0.4,1.7-1,2.2-1.7c0.3-0.4,0.5-0.8,0.5-1.2v-2.7c-0.7-0.3-1.5-0.5-2.2-0.6c-0.8-0.1-1.6-0.2-2.4-0.2
	c-0.8,0-1.5,0.1-2.1,0.3s-1.2,0.4-1.6,0.7c-0.5,0.3-0.8,0.7-1.1,1.1c-0.2,0.4-0.4,0.9-0.4,1.4c0,0.5,0.1,1,0.3,1.5
	c0.2,0.5,0.5,0.9,0.8,1.2c0.4,0.3,0.8,0.6,1.3,0.8C211.6,36.7,212.2,36.8,212.7,36.8z"/>
<path class="st1" d="M223.3,15.9h1.5v18.7c0,0.6,0.2,1,0.5,1.4s0.8,0.5,1.4,0.5c0.2,0,0.5,0,0.8-0.1c0.3,0,0.6-0.1,0.9-0.2l0.3,1.2
	c-0.3,0.1-0.8,0.3-1.3,0.3c-0.5,0.1-0.9,0.1-1.3,0.1c-0.8,0-1.5-0.3-2-0.8c-0.5-0.5-0.8-1.2-0.8-2V15.9z"/>
<path class="st1" d="M229.5,15.9h1.5v18.7c0,0.6,0.2,1,0.5,1.4s0.8,0.5,1.4,0.5c0.2,0,0.5,0,0.8-0.1c0.3,0,0.6-0.1,0.9-0.2l0.3,1.2
	c-0.3,0.1-0.8,0.3-1.3,0.3c-0.5,0.1-0.9,0.1-1.3,0.1c-0.8,0-1.5-0.3-2-0.8c-0.5-0.5-0.8-1.2-0.8-2V15.9z"/>
<path class="st1" d="M242.2,38c-1.1,0-2.1-0.2-3-0.6c-0.9-0.4-1.7-1-2.4-1.8c-0.7-0.7-1.2-1.6-1.6-2.6c-0.4-1-0.6-2-0.6-3.1
	c0-1.1,0.2-2.1,0.6-3.1c0.4-1,0.9-1.8,1.6-2.5c0.7-0.7,1.5-1.3,2.4-1.7c0.9-0.4,1.9-0.6,3-0.6c1.1,0,2.1,0.2,3,0.6
	c0.9,0.4,1.7,1,2.4,1.7c0.7,0.7,1.2,1.6,1.6,2.5c0.4,1,0.6,2,0.6,3.1c0,0.1,0,0.2,0,0.4s0,0.2,0,0.3h-13.6c0.1,0.9,0.3,1.7,0.6,2.5
	c0.4,0.8,0.8,1.4,1.4,2c0.5,0.6,1.2,1,1.9,1.3c0.7,0.3,1.5,0.5,2.3,0.5c0.5,0,1.1-0.1,1.6-0.2c0.5-0.1,1-0.4,1.4-0.6
	c0.4-0.3,0.8-0.6,1.2-0.9c0.3-0.4,0.6-0.8,0.8-1.2l1.3,0.4c-0.2,0.6-0.5,1.1-1,1.5c-0.4,0.5-0.9,0.9-1.5,1.2
	c-0.6,0.3-1.2,0.6-1.9,0.8C243.6,37.9,242.9,38,242.2,38z M248.3,29.3c-0.1-0.9-0.3-1.8-0.6-2.5c-0.3-0.8-0.8-1.4-1.3-2
	c-0.5-0.5-1.2-1-1.9-1.3c-0.7-0.3-1.5-0.5-2.3-0.5c-0.8,0-1.6,0.2-2.3,0.5c-0.7,0.3-1.3,0.7-1.9,1.3c-0.5,0.5-1,1.2-1.3,2
	c-0.3,0.8-0.5,1.6-0.6,2.5H248.3z"/>
<path class="st1" d="M258.3,36.9c-0.1,0-0.2,0.1-0.4,0.2c-0.2,0.1-0.4,0.2-0.7,0.3c-0.3,0.1-0.6,0.2-1,0.3c-0.4,0.1-0.7,0.1-1.2,0.1
	c-0.4,0-0.8-0.1-1.2-0.2c-0.4-0.1-0.7-0.3-1-0.5c-0.3-0.2-0.5-0.5-0.7-0.9c-0.2-0.3-0.2-0.7-0.2-1.2V23.4h-2.2v-1.2h2.2v-5.3h1.5
	v5.3h3.6v1.2h-3.6v11.3c0,0.6,0.2,1,0.6,1.3c0.4,0.3,0.8,0.4,1.3,0.4c0.6,0,1.1-0.1,1.6-0.3c0.4-0.2,0.7-0.3,0.8-0.4L258.3,36.9z"/>
<path class="st2" d="M57.1,28.5c0,15.8-12.8,28.5-28.5,28.5C12.8,57.1,0,44.3,0,28.5C0,12.8,12.8,0,28.5,0
	C44.3,0,57.1,12.8,57.1,28.5"/>
<path class="st3" d="M50.8,28.5c0,12.3-9.9,22.2-22.2,22.2c-12.3,0-22.2-9.9-22.2-22.2c0-12.3,9.9-22.2,22.2-22.2
	C40.8,6.3,50.8,16.3,50.8,28.5"/>
<path class="st2" d="M14.8,37c0-5.9,0-11.9,0-17.8c0-0.1,0.1-0.2,0.1-0.3c0.4-1.6,1.9-2.8,3.5-2.8c5.8,0,11.6,0,17.3,0
	c1.8,0,3.2,1.5,3.2,3.2c0,0.6,0,1.3,0,1.9c0,0.6,0.1,1,0.7,1.3c0.9,0.4,1.4,1.2,1.7,2.1c0.1,0.2,0.1,0.3,0.2,0.5c0,4,0,7.9,0,11.9
	c-0.1,0.1-0.1,0.3-0.2,0.4c-0.5,1.6-2,2.8-3.7,2.8c-6.3,0-12.7,0-19,0c-1.6,0-3-1-3.6-2.6C15,37.4,14.9,37.2,14.8,37z M16.5,22.9
	c0,0.2,0,0.2,0,0.3c0,4.4,0,8.8,0,13.1c0,1.3,1,2.2,2.3,2.2c1.4,0,2.8,0,4.3,0c4.8,0,9.6,0,14.4,0c1.2,0,2.2-0.7,2.3-1.9
	c0.1-0.7,0-1.4,0-2.1c-1.2,0-2.4,0-3.5,0c-1.7,0-3.1-1.4-3.1-3.1c0-1.7,1.4-3.1,3.1-3.1c1,0,2,0,3.1,0c0.1,0,0.3,0,0.5,0
	c0-0.8,0-1.5,0-2.2c0-1.7-0.9-2.5-2.5-2.5c-5.9,0-11.8,0-17.8,0C18.5,23.5,17.5,23.5,16.5,22.9z M37.3,21.8c0-0.8,0-1.5,0-2.2
	c0-1.4-0.6-2-2-2c-5.2,0-10.5,0-15.7,0c-0.4,0-0.8,0-1.2,0c-1.4,0.1-2.3,1.5-1.8,2.9c0.3,0.8,1.1,1.3,2.1,1.3c6,0,12.1,0,18.1,0
	C37,21.8,37.1,21.8,37.3,21.8z M39.8,30c-1.2,0-2.3,0-3.5,0c-0.8,0-1.5,0.7-1.5,1.4c0,0.8,0.6,1.4,1.5,1.5c0.6,0,1.3,0,1.9,0
	c0.5,0,1,0,1.5,0C39.8,31.9,39.8,31,39.8,30z"/>
<path class="st2" d="M18.2,18.9c5.8,0,11.6,0,17.4,0c0,0.5,0,1,0,1.6c-5.8,0-11.6,0-17.4,0C18.2,20,18.2,19.5,18.2,18.9z"/>
<path class="st2" d="M36.5,32.3c-0.4,0-0.8-0.4-0.8-0.8c0-0.4,0.4-0.8,0.8-0.8c0.5,0,0.9,0.4,0.9,0.8C37.3,31.9,37,32.3,36.5,32.3z"
	/>
</svg>
